PathFileType	4	(X/Y/Z)	Patient5_TMGait_0pt45_1_left_12.trc.trc
DataRate	CameraRate	NumFrames	NumMarkers	Units	OrigDataRate	OrigDataStartFrame	OrigNumFrames
62.500000000000	62.500000000000	6	32	mm	62.500000000000	89	       141
Frame#	Time	R.ASIS			L.ASIS			Chest			R.Shoulder			Neck			L.Shoulder			L.Elbow			L.Wrist			R.Elbow			R.Wrist			L.Thigh.Superior			L.Thigh.Lateral			L.Thigh.Inferior			L.Patella			L.Shank.Superior			L.Shank.Lateral			L.Shank.Inferior			L.Heel			L.Midfoot.Lateral			L.Midfoot.Superior			L.Toe			R.Thigh.Superior			R.Thigh.Lateral			R.Thigh.Inferior			R.Patella			R.Shank.Superior			R.Shank.Lateral			R.Shank.Inferior			R.Heel			R.Midfoot.Lateral			R.Midfoot.Superior			R.Toe			
		X1	Y1	Z1	X2	Y2	Z2	X3	Y3	Z3	X4	Y4	Z4	X5	Y5	Z5	X6	Y6	Z6	X7	Y7	Z7	X8	Y8	Z8	X9	Y9	Z9	X10	Y10	Z10	X11	Y11	Z11	X12	Y12	Z12	X13	Y13	Z13	X14	Y14	Z14	X15	Y15	Z15	X16	Y16	Z16	X17	Y17	Z17	X18	Y18	Z18	X19	Y19	Z19	X20	Y20	Z20	X21	Y21	Z21	X22	Y22	Z22	X23	Y23	Z23	X24	Y24	Z24	X25	Y25	Z25	X26	Y26	Z26	X27	Y27	Z27	X28	Y28	Z28	X29	Y29	Z29	X30	Y30	Z30	X31	Y31	Z31	X32	Y32	Z32	

89	20.018000000000	1038.862454710850	975.551525522580	551.586317921279	1033.153668030354	948.365252487902	310.029222419388	1079.881210145772	1431.344756848890	456.108287472111	963.732315167192	1485.724474538958	616.101943238824	953.510401270968	1551.061499291862	432.244601112624	1035.297096296913	1502.214635749612	257.041500913124	1023.249967968592	1180.547613696834	114.756496884270	1150.106177632678	923.945199814249	165.113843749749	876.783185089949	1163.190649838170	745.781575031166	1097.886457113106	983.460687240676	687.862924887256	1014.853977987197	720.930129855439	311.700384639734	925.143842552501	664.542495128650	270.447238961614	979.369744280205	594.295240661232	334.638567433412	944.585471113068	476.455896474401	339.351492657200	875.129795354871	388.610082980994	360.644462985290	793.782989454552	337.263399181039	282.424067482645	814.974444110543	276.483376133796	370.327767818995	635.920340945751	60.832716363591	368.751169260183	724.353649660419	32.437359316195	311.129461659494	822.217724193678	89.694054528963	354.784334140239	926.547653640305	44.069357433993	362.252693543560	1074.834848151641	748.842010058744	579.167809257719	998.348862167966	663.721808494450	632.358561740284	1085.950355884576	619.184984951774	561.109323634111	1098.794335991566	523.223481516644	594.906185728679	1068.280019710706	421.073190397039	558.883867657431	998.459632772115	348.833646764354	637.971633027661	1064.240023023904	281.144482436580	561.671906811956	962.725578513419	53.026945252474	531.087608230162	1037.731860323514	24.486644490299	608.459438832443	1143.622741959462	89.352358391087	591.361706916197	1247.572244786505	46.153190270244	596.188141054112	
90	20.034000000000	1038.396825116587	974.786712872972	554.487907044747	1033.175071737584	948.670617729283	313.233220220816	1080.451012222506	1431.366026856615	459.676742941293	965.013489539350	1485.612785218464	620.185779961115	953.837957663559	1551.105665153555	436.240695317663	1034.610029153054	1502.241528631064	260.479313696399	1016.973502036012	1181.336431517983	117.023770154754	1140.901335345606	922.547216875875	163.417988936949	880.655183982095	1162.137466956157	749.437579262154	1102.293646326125	983.493224380044	690.210942341692	1014.622478975919	721.311705947118	313.886262356083	925.064165886964	664.843037453114	272.516803011531	979.847769480423	594.405171132169	335.892960729636	944.453091719604	475.026819758342	339.505049336553	873.623942862164	388.306424395620	360.563734533736	790.564985971549	338.973914987847	282.658868707199	811.641153199609	277.133644152588	370.036747698768	629.385723017548	63.817079891788	368.224281169383	717.526697071621	33.837331910335	310.835771579900	816.089503890065	90.170758935010	354.056235068520	919.275115645290	43.974120268977	362.221232904255	1073.753444706413	748.565009801115	581.080768935529	997.258293383177	663.443181948542	634.272906999669	1084.395276170860	618.986414800289	562.514655194831	1096.737257661911	522.728969042339	595.599919809511	1065.132649940989	420.463929316843	559.457303478719	995.588599021242	348.574807887971	638.986929474099	1059.829657740625	280.596700083946	561.679932841463	955.865988933830	52.941177126627	530.790469337792	1030.780364228190	24.891658724604	608.334560161303	1137.132736998121	88.775231605514	590.096103975887	1240.809256866128	44.859884831105	595.383108053449	
91	20.050000000000	1037.929461403745	974.694842051970	557.629131532602	1033.086184176129	949.441249542184	316.543302988532	1081.212796017306	1431.775228170559	463.292286594479	966.430080136726	1486.031816755883	624.202827278336	954.516453320080	1551.644897918767	440.188590131536	1034.431747476596	1502.747834917000	263.980324849620	1010.745127262092	1182.676107517493	119.565330852472	1131.599863704871	921.734142625659	162.023520529570	884.467558374888	1161.745608696472	753.106945276983	1106.614732703993	984.142969272904	692.637296172638	1014.759879632802	722.178896449340	316.160996257169	925.553743993811	665.435284051325	274.510133628919	981.048047201811	594.937353785189	337.146021087459	945.333247274116	473.741734918736	339.475379926955	873.003045117125	388.201043581868	360.311542084381	788.162556502226	341.004662935332	282.840426824455	809.010326232091	278.114938713188	369.629924131379	623.158418604280	67.696892442504	367.720280004924	710.868683838186	35.742891680820	310.555117842235	810.354563828362	90.700494021317	353.283095781394	912.092582135074	43.863127535758	362.177919695955	1073.067293232119	748.842708149632	583.629530817597	996.521430703931	663.665680943119	636.619726372579	1083.554752117411	619.383712515845	564.704688089122	1095.292239904477	522.781573924952	597.170335288691	1062.561702936215	420.305143405916	560.777168653133	992.967598956938	348.837979883422	640.600113710958	1055.717315515634	280.498904473255	562.416389679545	949.041829073371	53.229494084496	530.975843547225	1023.954025090076	25.332197905987	608.498964470532	1130.611692988595	88.591011694379	589.655940164156	1234.071793207777	44.207393375635	595.127547213140	
92	20.066000000000	1037.539826110768	975.120028894057	561.017918061669	1032.870800841500	950.619833881359	319.938416342625	1082.123437634115	1432.528800918848	466.919792076459	967.969537289526	1486.933091881213	628.156650074576	955.473964800593	1552.614837119206	444.105195645445	1034.690310234508	1503.696008246328	267.545534052863	1004.657459728134	1184.567119602402	122.322389909330	1122.263381936288	921.508590768925	161.037919153730	888.124854968347	1162.015443909553	756.850488350602	1110.791649911284	985.484908171939	695.140229992151	1015.336337353092	723.480590866865	318.369710511800	926.670285406445	666.283589597809	276.297115078636	983.071500558705	595.835670607576	338.223319852037	947.411098150899	472.567224285377	339.088619538707	873.433915098241	388.243064718284	359.779783851626	786.735700847309	343.322565622679	282.876757345639	807.230044325622	279.408848874505	369.030771474690	617.326071656231	72.550582134570	367.220603588720	704.421164299046	38.173416641596	310.290107292691	805.077603360343	91.247610539737	352.448084065366	905.024911267793	43.745154175756	362.119974451670	1072.599029774267	749.370804986521	586.947349695120	995.686271244031	664.128155095658	639.271483261555	1083.088832183488	620.041607447588	567.702925225519	1094.001155570591	523.050034287082	599.579340542086	1060.237038488673	420.378853767936	562.665992923989	990.167174011269	349.359456381177	642.510556173550	1051.662244927626	280.629665684024	563.685018402640	942.172121973656	53.688516380784	531.419225255237	1017.125646260161	25.693128593832	608.808460105875	1123.962686287357	88.619726813416	589.800634501698	1227.259687934556	43.981415112710	595.257899175937	
93	20.082000000000	1037.274663213924	975.841096579900	564.614903125775	1032.534475303605	952.096715459063	323.395854209605	1083.141120117529	1433.540275810250	470.533536942557	969.626524041326	1488.207530517557	632.070951675246	956.623220200606	1553.897465620076	448.024896498296	1035.260019010008	1504.985767733230	271.177020234429	998.815196780340	1186.940242258732	125.214717626362	1112.973438723768	921.809200636259	160.563755790027	891.543610757542	1162.869418117005	760.730753662736	1114.776850786745	987.511393627148	697.740082598088	1016.429319565645	725.102579728690	320.349719533722	928.483033072563	667.291065479307	277.768301544969	986.037224994943	596.986789971218	338.941034287139	950.892690955721	471.438932357761	338.187580050960	875.097665201351	388.347307203855	358.878571737165	786.469688456669	345.867475610198	282.681603259667	806.469917285067	280.970571822378	368.179031483488	612.010593004403	78.455578378847	366.705133624745	698.238243982126	41.158113498573	310.043221099278	800.319320012420	91.780569928385	351.538412613383	898.093066417361	43.621491614931	362.047546442589	1072.084386474207	749.865179368096	590.955943156153	994.355385788782	664.604561344929	642.068109994299	1082.544311349667	620.660968161993	571.316481252214	1092.389321773905	523.268865516182	602.581685934068	1057.785107712778	420.508470311609	564.855813531243	986.843982172091	349.914468902787	644.424052812579	1047.426579821304	280.809082120477	565.226973049685	935.217597065493	54.153106123122	531.924511667543	1010.217290423163	25.926856434010	609.147096137788	1117.146717086108	88.722945576793	590.255922297535	1220.326930548876	43.990430666392	595.595622382973	
94	20.098000000000	1037.148830003124	976.625054774133	568.343817583637	1032.084955868630	953.722213249191	326.887352327338	1084.230336813981	1434.691300215887	474.117711554516	971.403536312357	1489.701548705340	635.980050079820	957.875935953333	1555.338639780969	451.987945383651	1035.981814630702	1506.470283090847	274.872603630929	993.309951830488	1189.663100676725	128.159989825310	1103.825753553130	922.521872024960	160.677934448208	894.671821596692	1164.164975634598	764.803609375134	1118.537586340916	990.119736747918	700.478171134236	1018.113674483368	726.889402523697	321.954333552473	931.073038162354	668.314782238720	278.843415662724	990.079207147433	598.248791923575	339.140038041671	955.994027112228	470.289666963513	336.668348883283	878.181840336310	388.416123684978	357.553076821548	787.577932404120	348.566568451518	282.187031238053	806.919092978464	282.749552178579	367.044747229969	607.380792418987	85.515925741431	366.155501430502	692.393834295925	44.769595870543	309.813111959818	796.137784764892	92.291483467117	350.549140416331	891.311400260174	43.482133868264	361.959817697862	1071.243350157218	750.116634678736	595.351152984104	992.280689957404	664.947630058781	644.843798859015	1081.446845900815	621.022682033524	575.163148289429	1090.033822489490	523.273798594836	605.779555403199	1054.826633422131	420.581884170174	567.053405293464	982.773509243433	350.350015474823	646.121450845876	1042.789003601394	280.923757761036	566.785385675488	928.168753210733	54.512463577303	532.356356208861	1003.195378352852	26.031450505118	609.439758522786	1110.165699369622	88.811322102112	590.782310950281	1213.269255579256	44.090631522603	595.985504470590	
